<?xml version="1.0" standalone="no"?>
<!DOCTYPE svg PUBLIC "-//W3C//DTD SVG 20010904//EN"
 "http://www.w3.org/TR/2001/REC-SVG-20010904/DTD/svg10.dtd">
<svg version="1.0" xmlns="http://www.w3.org/2000/svg"
 width="473.000000pt" height="680.000000pt" viewBox="0 0 473.000000 680.000000"
 preserveAspectRatio="xMidYMid meet">

<g transform="translate(0.000000,680.000000) scale(0.100000,-0.100000)"
fill="#000000" stroke="none">
<path d="M682 4580 c-1 -476 1 -909 5 -962 l6 -98 487 0 487 0 6 152 c4 83 7
223 7 311 0 152 -1 159 -18 144 -14 -13 -71 -18 -347 -28 -263 -10 -447 -14
-617 -14 -1 0 -5 306 -8 680 l-5 680 -3 -865z"/>
<path d="M2870 5419 c-19 -3 -28 -7 -20 -8 17 -1 45 -40 36 -49 -3 -3 -6 0 -6
6 0 7 -7 12 -15 12 -12 0 -13 -5 -4 -24 13 -28 3 -233 -12 -242 -5 -3 -7 -10
-4 -15 4 -5 3 -9 -2 -9 -4 0 -9 -21 -10 -47 0 -27 -6 -75 -12 -108 -29 -157
-34 -299 -14 -369 4 -13 2 -16 -8 -11 -9 6 -11 3 -6 -8 4 -12 1 -17 -11 -18
-14 0 -14 -2 3 -9 14 -6 15 -9 5 -10 -10 -1 -9 -4 5 -10 19 -8 18 -9 -4 -9
-27 -1 -22 -13 6 -15 27 -2 113 -37 155 -62 65 -41 135 -121 172 -196 82 -169
65 -356 -47 -519 -30 -44 -167 -149 -194 -149 -7 0 -13 -8 -13 -17 0 -14 -2
-15 -9 -4 -6 9 -11 10 -15 3 -4 -6 -13 -9 -20 -6 -8 3 -17 1 -21 -5 -3 -6 0
-11 7 -11 17 0 43 -63 28 -68 -16 -6 -13 -829 3 -835 7 -2 -1 -11 -18 -20 -30
-16 -30 -16 47 -17 49 0 78 4 80 11 2 7 22 14 43 16 120 12 384 130 537 240
162 116 333 312 428 490 20 37 45 82 56 99 10 17 30 65 44 105 14 41 28 76 33
77 4 2 7 28 7 57 0 30 6 74 14 97 27 80 22 366 -8 513 -34 158 -56 230 -76
245 -11 8 -60 121 -60 139 0 10 -13 30 -30 46 -16 16 -30 33 -30 38 0 25 -117
174 -210 267 -120 120 -253 218 -390 288 -119 60 -161 75 -280 101 -127 28
-120 28 -160 20z"/>
<path d="M2843 5160 c0 -25 2 -35 4 -22 2 12 2 32 0 45 -2 12 -4 2 -4 -23z"/>
<path d="M682 1618 c2 -778 3 -831 5 -304 2 452 6 643 14 653 6 7 23 13 38 13
14 0 35 7 45 15 11 8 25 15 31 15 13 0 56 -125 80 -233 9 -37 20 -78 27 -92
11 -25 112 -99 139 -101 8 -1 28 -9 43 -19 16 -11 37 -20 47 -20 10 -1 30 -14
45 -28 26 -26 45 -33 57 -21 3 3 44 8 92 9 94 4 104 10 129 70 9 20 30 51 46
68 28 28 32 30 46 15 9 -9 36 -56 60 -104 l43 -89 0 270 c1 149 4 395 8 548
l6 277 -501 0 -502 0 2 -942z"/>
</g>
</svg>
